<svg width="79" height="32" viewBox="0 0 79 32" fill="none" xmlns="http://www.w3.org/2000/svg">
<path d="M16.7695 0H0V12.234H7.62248L0 19.8531V32H16.7695L24.3919 24.4245V7.66258L16.7695 0ZM16.7695 24.4245H7.62248V7.66258H16.7695V24.4245Z" fill="url(#paint0_linear_210_1313)"/>
<path d="M62.2305 0L54.6081 7.66258V12.234L62.2305 12.1905V7.66258H79V0H62.2305ZM54.6081 19.8095H71.3775V24.381H79V12.234H62.2305L54.6081 19.8095ZM54.6081 32H71.3775L79 24.381H54.6081V32Z" fill="url(#paint1_linear_210_1313)"/>
<path d="M34.8456 0L27.2232 7.66258V12.234L34.8456 12.1905V7.66258H70.0939V0H34.8456ZM27.2232 19.8095H43.9926V24.381H51.6151V12.234H34.8456L27.2232 19.8095ZM5.85641 32H43.9926L51.6151 24.381H5.85641V32Z" fill="url(#paint2_linear_210_1313)"/>
<defs>
<linearGradient id="paint0_linear_210_1313" x1="0" y1="16" x2="79" y2="16" gradientUnits="userSpaceOnUse">
<stop stop-color="#3D3393"/>
<stop offset="0.37" stop-color="#2B76B9"/>
<stop offset="0.65" stop-color="#2CACD1"/>
<stop offset="1" stop-color="#35EB93"/>
</linearGradient>
<linearGradient id="paint1_linear_210_1313" x1="0" y1="16" x2="79" y2="16" gradientUnits="userSpaceOnUse">
<stop stop-color="#3D3393"/>
<stop offset="0.37" stop-color="#2B76B9"/>
<stop offset="0.65" stop-color="#2CACD1"/>
<stop offset="1" stop-color="#35EB93"/>
</linearGradient>
<linearGradient id="paint2_linear_210_1313" x1="0" y1="16" x2="79" y2="16" gradientUnits="userSpaceOnUse">
<stop stop-color="#3D3393"/>
<stop offset="0.37" stop-color="#2B76B9"/>
<stop offset="0.65" stop-color="#2CACD1"/>
<stop offset="1" stop-color="#35EB93"/>
</linearGradient>
</defs>
</svg>
