<svg width="7" height="8" viewBox="0 0 7 8" fill="none" xmlns="http://www.w3.org/2000/svg">
<g id="Frame 26">
<rect x="0.15918" y="0.857422" width="6.38088" height="6.38088" rx="3.19044" fill="black"/>
<path id="Line 12" d="M1.75439 3.91492C1.68098 3.91492 1.62146 3.97443 1.62146 4.04785C1.62146 4.12127 1.68098 4.18079 1.75439 4.18079V3.91492ZM5.03883 4.14185C5.09075 4.08994 5.09075 4.00577 5.03883 3.95385L4.19284 3.10786C4.14093 3.05594 4.05676 3.05594 4.00484 3.10786C3.95293 3.15977 3.95293 3.24394 4.00484 3.29586L4.75684 4.04785L4.00484 4.79985C3.95293 4.85176 3.95293 4.93593 4.00484 4.98784C4.05676 5.03976 4.14093 5.03976 4.19284 4.98784L5.03883 4.14185ZM1.75439 4.18079H4.94484V3.91492H1.75439V4.18079Z" fill="white"/>
</g>
</svg>
